<svg width="157" height="160" viewBox="0 0 157 160" fill="none" xmlns="http://www.w3.org/2000/svg">
<path d="M30.7568 13.3916H127.26V30.0416H30.7568V13.3916Z" fill="#F1BB6B"/>
<path d="M145.239 113.297C146.177 100.218 145.516 83.9596 140.885 65.7168H44.3926C49.0213 83.9596 49.6845 100.221 48.7466 113.297H145.239Z" fill="#E49A61"/>
<path d="M123.042 65.7176H140.885C138.033 54.476 133.684 42.4991 127.252 30.0449H30.7568C37.1921 42.4991 41.5377 54.4788 44.3904 65.7176H58.4763H123.042Z" fill="#E49A61"/>
<path d="M138.227 113.297H69.5676H48.744C47.2677 133.904 41.8564 146.608 41.8564 146.608H138.352C138.352 146.608 143.763 133.904 145.239 113.297H138.227Z" fill="#E49A61"/>
<path d="M33.5818 35.7725C32.6855 33.8744 31.7503 31.968 30.7596 30.0449C-2.57644 94.5637 19.6596 146.612 19.6596 146.612H30.7596C30.7569 146.609 13.6157 105.78 33.5818 35.7725Z" fill="#E49A61"/>
<path d="M33.5817 35.7725C13.6156 105.783 30.7596 146.609 30.7596 146.609H41.8596C41.8568 146.609 62.7831 97.6133 33.5817 35.7725Z" fill="#F1BB6B"/>
<path d="M110.335 62.562C106.513 60.3078 101.468 59.0664 96.1287 59.0664H91.7307C86.3918 59.0664 81.3464 60.3078 77.5245 62.562C73.4179 64.9842 71.1562 68.3028 71.1562 71.9064V73.6252H116.703V71.9064C116.703 68.3028 114.441 64.9842 110.335 62.562ZM74.8945 70.1877C76.4149 65.8778 83.5082 62.5039 91.7309 62.5039H96.1289C104.352 62.5039 111.445 65.8778 112.965 70.1877H74.8945Z" fill="black"/>
<path d="M116.703 85.6562H71.1562V89.0938H116.703V85.6562Z" fill="black"/>
<path d="M107.593 77.0664C104.931 77.0664 103.536 77.7244 102.305 78.3049C101.228 78.8133 100.376 79.2148 98.4837 79.2148C96.5914 79.2148 95.7402 78.8133 94.6623 78.3049C93.4317 77.7248 92.0368 77.0664 89.3745 77.0664C86.7121 77.0664 85.3172 77.7244 84.0866 78.3049C83.0089 78.8133 82.1576 79.2148 80.2654 79.2148C78.3732 79.2148 77.5219 78.8133 76.4441 78.3049C75.2135 77.7248 73.8186 77.0664 71.1562 77.0664V80.5039C73.0485 80.5039 73.8998 80.9055 74.9776 81.4139C76.2082 81.994 77.6031 82.6523 80.2654 82.6523C82.9278 82.6523 84.3225 81.9944 85.5531 81.4139C86.6309 80.9055 87.4822 80.5039 89.3745 80.5039C91.2667 80.5039 92.118 80.9055 93.1958 81.4139C94.4265 81.994 95.8213 82.6523 98.4837 82.6523C101.146 82.6523 102.541 81.9944 103.772 81.4139C104.85 80.9055 105.701 80.5039 107.593 80.5039C109.486 80.5039 110.337 80.9055 111.415 81.4139C112.646 81.994 114.041 82.6523 116.703 82.6523V79.2148C114.811 79.2148 113.959 78.8133 112.881 78.3049C111.65 77.7244 110.256 77.0664 107.593 77.0664Z" fill="black"/>
<path d="M71.1562 101.125C71.157 101.809 71.4289 102.464 71.9122 102.947C72.3956 103.43 73.0509 103.702 73.7344 103.703H114.125C114.809 103.702 115.464 103.43 115.947 102.947C116.43 102.464 116.702 101.809 116.703 101.125V92.5312H71.1562V101.125ZM74.5938 95.9688H113.266V100.266H74.5938V95.9688Z" fill="black"/>
</svg>
